<svg xmlns="http://www.w3.org/2000/svg" id="budbee" data-name="Layer 1" viewBox="0 0 982.02 244.6" width="100" height="40" data-inject-url="https://content.nelly.com/v1/static/footerlogo_BudBee" class="footer-logo" data-src="https://content.nelly.com/v1/static/footerlogo_BudBee"><title>BudBee</title><defs><style>.budbee-1{fill:#41cda5}</style></defs><path class="budbee-1" d="M959.93 47.12a21.93 21.93 0 1 0-22.1-21.93 22 22 0 0 0 22.1 21.93zm0-40.65a18.72 18.72 0 1 1-18.56 18.72 18.72 18.72 0 0 1 18.56-18.72z"></path><path class="budbee-1" d="M956.08 27.37h3.66l5.56 9.81h3.91l-5.8-10.24c3-.9 5.19-3.09 5.19-6.6a7.38 7.38 0 0 0-7.6-7.21h-8.24v24h3.36zm0-11.27h4.52a4.28 4.28 0 0 1 4.58 4.24c0 2.42-1.9 4.18-4.58 4.18h-4.52zM79.48 83.53c-16.23 0-33.12 6.58-43.05 16.44l-1.66 1.64-2 2.17V0H0v241.31h32.78v-17.15l2 2.36 1.66 1.65c9.92 9.83 26.48 16.43 43.04 16.43 43.05 0 79.48-32.87 79.48-80.53s-36.43-80.54-79.48-80.54zM77.82 215c-28.15 0-48-23-48-51s19.86-50.95 48-50.95c31.47 0 48 23 48 50.95s-16.53 51-48 51zM278.19 180.5a36.79 36.79 0 0 1-36.43 34.5c-22.19 0-32.46-11.84-33.12-32.87V86.82h-33.12v95.33c0 36.15 23.19 62.45 62.93 62.45 13.24 0 29.8-6.57 36.43-16.43l1.65-2.16 1.66-2.25v17.55h33.12V86.82h-33.12zM745.15 83.53c-43 0-76.17 32.87-76.17 80.54s34.78 80.53 76.17 80.53c31.47 0 54.65-16.43 67.9-39.44L785.23 192c-5 13.15-18.55 23-38.42 23-28.15 0-44.71-19.73-44.71-42.73H818v-9.87c0-47.64-33.1-78.87-72.85-78.87zm-41.39 59.83c5-17.09 18.21-30.24 41.39-30.24 19.87 0 36.43 13.15 38.09 30.24zM909.09 83.53c-43.06 0-76.17 32.87-76.17 80.54s34.77 80.53 76.17 80.53c31.46 0 54.64-16.43 67.89-39.44L949.16 192c-5 13.15-18.55 23-38.41 23-28.15 0-44.75-19.71-44.75-42.71h115.9l.05-9.87c.05-47.66-33.12-78.89-72.86-78.89zm-41.4 59.83c5-17.09 18.22-30.24 41.4-30.24 19.87 0 36.43 13.15 38.08 30.24zM579.57 83.53c-16.23 0-33.12 6.58-43.06 16.44l-1.65 1.64-2 2.17V0h-32.78v241.31h32.79v-17.15l2 2.36 1.65 1.65c9.93 9.83 26.48 16.43 43.05 16.43 43 0 79.48-32.87 79.48-80.53s-36.43-80.54-79.48-80.54zM577.91 215c-28.15 0-48-23-48-51s19.87-50.95 48-50.95c31.46 0 48 23 48 50.95s-16.54 51-48 51zM324.55 164.07c0 47.66 36.43 80.53 79.49 80.53 16.56 0 33.12-6.57 43-16.43l1.66-1.65 2-2.36v17.15h32.78V0h-32.74v103.78l-2-2.17-1.65-1.61c-9.93-9.86-26.82-16.44-43-16.44-43.09-.03-79.54 32.84-79.54 80.51zm33.12 0c0-27.94 16.56-50.95 48-50.95 28.15 0 48 23 48 50.95s-19.86 51-48 51c-31.44-.07-48-23.07-48-51z"></path></svg>